<svg xmlns="http://www.w3.org/2000/svg" xmlns:xlink="http://www.w3.org/1999/xlink" width="1160" zoomAndPan="magnify" viewBox="0 0 870 809.999993" height="1080" preserveAspectRatio="xMidYMid meet" version="1.0"><path fill="#333333" d="M 553.675781 0.699219 C 525.144531 2.519531 495.472656 19.171875 471.066406 50.324219 C 438.378906 26.300781 396.625 23.128906 363.617188 34.132812 C 344.984375 40.34375 328.710938 50.675781 318.554688 65.609375 C 312.152344 75.027344 310.34375 86.734375 311.097656 98.734375 C 293.371094 98.816406 277.433594 101.964844 266.175781 110.558594 C 250.765625 122.324219 243.414062 140.984375 245.445312 159.050781 C 249.511719 195.183594 288.875 226.558594 352.101562 220.390625 C 406.566406 215.078125 426.691406 175.515625 433.886719 159.023438 C 441.09375 162.425781 446.234375 166.292969 462.21875 168.070312 C 486.085938 170.722656 518.394531 163.003906 537.113281 129.644531 C 537.601562 128.8125 538 127.9375 538.3125 127.027344 C 538.625 126.113281 538.84375 125.179688 538.972656 124.222656 C 539.097656 123.269531 539.128906 122.308594 539.066406 121.347656 C 539.003906 120.382812 538.84375 119.4375 538.589844 118.507812 C 538.339844 117.578125 537.996094 116.679688 537.5625 115.816406 C 537.132812 114.957031 536.621094 114.144531 536.027344 113.382812 C 535.433594 112.621094 534.773438 111.929688 534.042969 111.300781 C 533.308594 110.671875 532.523438 110.121094 531.683594 109.648438 C 530.839844 109.179688 529.960938 108.792969 529.042969 108.496094 C 528.125 108.199219 527.1875 107.996094 526.230469 107.886719 C 525.273438 107.777344 524.3125 107.761719 523.351562 107.84375 C 522.390625 107.925781 521.449219 108.101562 520.523438 108.371094 C 519.597656 108.640625 518.707031 108.996094 517.851562 109.445312 C 516.996094 109.890625 516.195312 110.417969 515.445312 111.023438 C 514.695312 111.632812 514.011719 112.304688 513.398438 113.046875 C 512.78125 113.789062 512.246094 114.585938 511.789062 115.4375 C 498.535156 139.0625 482.214844 141.066406 465.421875 139.199219 C 448.628906 137.332031 434.371094 129.386719 434.371094 129.386719 C 433.90625 129.121094 433.425781 128.878906 432.9375 128.664062 C 432.445312 128.453125 431.941406 128.265625 431.429688 128.105469 C 430.917969 127.949219 430.398438 127.816406 429.871094 127.714844 C 429.34375 127.613281 428.8125 127.542969 428.28125 127.5 C 427.746094 127.457031 427.210938 127.445312 426.675781 127.464844 C 426.136719 127.480469 425.605469 127.527344 425.074219 127.601562 C 424.542969 127.679688 424.019531 127.785156 423.5 127.917969 C 422.980469 128.050781 422.46875 128.214844 421.96875 128.40625 C 421.464844 128.597656 420.976562 128.8125 420.5 129.058594 C 420.023438 129.304688 419.5625 129.574219 419.113281 129.871094 C 418.667969 130.167969 418.238281 130.488281 417.828125 130.828125 C 417.414062 131.171875 417.023438 131.539062 416.652344 131.925781 C 416.28125 132.3125 415.933594 132.71875 415.605469 133.144531 C 415.28125 133.570312 414.976562 134.011719 414.699219 134.472656 C 414.425781 134.929688 414.171875 135.40625 413.949219 135.890625 C 413.722656 136.378906 413.527344 136.875 413.355469 137.386719 C 413.355469 137.386719 396.8125 186.855469 349.265625 191.492188 C 295.976562 196.691406 276.265625 173.125 274.316406 155.789062 C 273.339844 147.121094 276.246094 139.421875 283.816406 133.640625 C 291.386719 127.863281 304.699219 123.78125 325.730469 127.542969 C 327.054688 127.78125 328.386719 127.832031 329.726562 127.699219 C 331.066406 127.5625 332.363281 127.25 333.613281 126.753906 C 334.867188 126.261719 336.027344 125.605469 337.097656 124.789062 C 338.167969 123.96875 339.105469 123.023438 339.910156 121.945312 C 340.71875 120.867188 341.359375 119.699219 341.84375 118.441406 C 342.324219 117.183594 342.625 115.886719 342.742188 114.542969 C 342.863281 113.203125 342.796875 111.871094 342.546875 110.546875 C 342.296875 109.226562 341.871094 107.960938 341.269531 106.757812 C 336.066406 96.351562 337.273438 89.695312 342.546875 81.945312 C 347.816406 74.191406 358.765625 66.375 372.804688 61.695312 C 400.882812 52.335938 438.878906 55.625 463.210938 79.960938 C 463.59375 80.34375 463.996094 80.703125 464.417969 81.039062 C 464.839844 81.378906 465.28125 81.691406 465.738281 81.980469 C 466.195312 82.265625 466.667969 82.527344 467.152344 82.765625 C 467.640625 83 468.136719 83.207031 468.648438 83.386719 C 469.15625 83.570312 469.675781 83.71875 470.203125 83.84375 C 470.730469 83.964844 471.261719 84.058594 471.796875 84.121094 C 472.335938 84.183594 472.875 84.214844 473.414062 84.21875 C 473.953125 84.21875 474.492188 84.191406 475.03125 84.136719 C 475.570312 84.078125 476.101562 83.988281 476.628906 83.871094 C 477.15625 83.753906 477.675781 83.609375 478.1875 83.433594 C 478.699219 83.257812 479.199219 83.054688 479.691406 82.824219 C 480.179688 82.59375 480.652344 82.335938 481.113281 82.050781 C 481.574219 81.769531 482.015625 81.460938 482.441406 81.125 C 482.867188 80.792969 483.273438 80.4375 483.660156 80.058594 C 484.042969 79.679688 484.40625 79.28125 484.75 78.859375 C 485.089844 78.441406 485.40625 78.003906 485.699219 77.550781 C 514.851562 32.21875 549.71875 23.988281 576.53125 31.976562 C 603.34375 39.96875 622.671875 64.9375 618.785156 96.972656 C 618.667969 97.933594 618.648438 98.890625 618.722656 99.851562 C 618.796875 100.816406 618.96875 101.761719 619.230469 102.6875 C 619.496094 103.617188 619.847656 104.507812 620.289062 105.367188 C 620.730469 106.222656 621.25 107.03125 621.855469 107.785156 C 622.457031 108.539062 623.125 109.222656 623.863281 109.84375 C 624.605469 110.464844 625.398438 111.003906 626.242188 111.46875 C 627.089844 111.929688 627.972656 112.304688 628.894531 112.589844 C 629.816406 112.875 630.757812 113.070312 631.714844 113.167969 C 651.632812 115.195312 659.199219 123.25 662.769531 134.152344 C 666.339844 145.054688 664.136719 160.644531 655.734375 174.222656 C 647.335938 187.800781 633.441406 198.988281 615.210938 202.664062 C 596.984375 206.34375 573.589844 202.929688 544.941406 184.0625 C 543.339844 183.011719 541.597656 182.300781 539.714844 181.9375 C 537.835938 181.574219 535.957031 181.582031 534.078125 181.964844 C 456.816406 197.664062 374.085938 257.753906 342.035156 344.855469 C 338.855469 338.960938 337.339844 332.277344 332.933594 327.101562 C 314.761719 305.769531 284.464844 294.519531 247.855469 301.042969 C 226.605469 265.207031 182.308594 251.058594 143.953125 258.730469 C 122.882812 262.945312 102.925781 273.679688 90.355469 291.964844 C 81.832031 304.363281 79.199219 320.699219 79.691406 338.359375 C 58.703125 334.269531 37.363281 340.410156 23.203125 354.867188 C 3.425781 375.054688 0.0859375 410.96875 24.875 444.023438 C 54.046875 482.914062 96.371094 495.128906 134.679688 496.289062 C 133.882812 503.25 132.839844 510.242188 133.316406 517.046875 C 134.71875 536.992188 141.847656 556.164062 155.636719 570.558594 C 169.425781 584.953125 189.792969 593.835938 214.222656 594.238281 C 248.140625 594.789062 277.164062 578.925781 304.828125 565.765625 C 332.5 552.605469 358.375 541.917969 386.386719 545.492188 C 408.535156 548.316406 417.410156 555.636719 422.289062 564.460938 C 427.167969 573.289062 427.886719 586.179688 425.324219 600.25 C 421.1875 622.949219 411.0625 642.316406 406.578125 650.472656 L 241.164062 650.472656 C 240.535156 650.472656 239.90625 650.511719 239.28125 650.59375 C 238.65625 650.675781 238.039062 650.796875 237.433594 650.957031 C 236.824219 651.117188 236.226562 651.320312 235.644531 651.558594 C 235.0625 651.796875 234.496094 652.070312 233.949219 652.382812 C 233.402344 652.695312 232.878906 653.042969 232.375 653.425781 C 231.875 653.804688 231.398438 654.214844 230.949219 654.660156 C 230.5 655.101562 230.082031 655.570312 229.695312 656.066406 C 229.308594 656.566406 228.957031 657.085938 228.636719 657.628906 C 228.316406 658.171875 228.035156 658.730469 227.785156 659.3125 C 227.539062 659.890625 227.332031 660.484375 227.164062 661.089844 C 226.992188 661.699219 226.863281 662.3125 226.773438 662.9375 C 226.6875 663.558594 226.636719 664.1875 226.628906 664.816406 C 226.621094 665.445312 226.65625 666.074219 226.730469 666.699219 C 226.804688 667.328125 226.917969 667.945312 227.070312 668.554688 C 227.226562 669.164062 227.421875 669.765625 227.652344 670.351562 C 227.882812 670.933594 228.152344 671.503906 228.460938 672.054688 L 301.058594 802.730469 C 301.6875 803.859375 302.457031 804.890625 303.359375 805.816406 C 304.265625 806.742188 305.277344 807.535156 306.394531 808.1875 C 307.511719 808.84375 308.695312 809.34375 309.945312 809.679688 C 311.195312 810.019531 312.46875 810.1875 313.761719 810.1875 L 633.191406 810.1875 C 634.484375 810.1875 635.757812 810.019531 637.007812 809.679688 C 638.257812 809.34375 639.441406 808.84375 640.558594 808.1875 C 641.675781 807.535156 642.6875 806.742188 643.59375 805.816406 C 644.496094 804.890625 645.265625 803.859375 645.894531 802.730469 L 718.492188 672.054688 C 718.800781 671.503906 719.070312 670.933594 719.300781 670.351562 C 719.535156 669.765625 719.726562 669.164062 719.882812 668.554688 C 720.035156 667.945312 720.148438 667.328125 720.222656 666.699219 C 720.296875 666.074219 720.332031 665.445312 720.324219 664.816406 C 720.316406 664.1875 720.265625 663.558594 720.179688 662.9375 C 720.089844 662.3125 719.960938 661.699219 719.789062 661.089844 C 719.621094 660.484375 719.414062 659.890625 719.167969 659.3125 C 718.917969 658.730469 718.636719 658.171875 718.316406 657.628906 C 717.996094 657.085938 717.644531 656.566406 717.257812 656.066406 C 716.871094 655.570312 716.453125 655.101562 716.003906 654.660156 C 715.554688 654.214844 715.078125 653.804688 714.578125 653.421875 C 714.074219 653.042969 713.550781 652.695312 713.003906 652.382812 C 712.457031 652.070312 711.890625 651.796875 711.308594 651.558594 C 710.726562 651.320312 710.128906 651.117188 709.519531 650.957031 C 708.914062 650.796875 708.296875 650.675781 707.671875 650.59375 C 707.046875 650.511719 706.417969 650.472656 705.789062 650.472656 L 559.742188 650.472656 C 573.539062 629.574219 583.75 604.535156 582.203125 575.238281 C 579.972656 532.953125 554.117188 487.847656 493.554688 462.824219 C 450.71875 445.125 431.464844 396.976562 447.046875 363.601562 C 454.835938 346.914062 470.949219 332.464844 501.15625 325.597656 C 531.359375 318.734375 575.636719 320.34375 635.742188 338.019531 C 636.246094 338.167969 636.757812 338.289062 637.273438 338.378906 C 637.789062 338.472656 638.3125 338.535156 638.835938 338.570312 C 639.359375 338.605469 639.882812 338.613281 640.40625 338.59375 C 640.929688 338.570312 641.453125 338.523438 641.972656 338.445312 C 642.492188 338.367188 643.003906 338.261719 643.511719 338.128906 C 644.019531 337.996094 644.519531 337.832031 645.007812 337.644531 C 645.5 337.457031 645.976562 337.246094 646.445312 337.007812 C 646.910156 336.765625 647.363281 336.503906 647.800781 336.214844 C 648.242188 335.925781 648.660156 335.613281 649.066406 335.28125 C 649.472656 334.945312 649.855469 334.589844 650.222656 334.214844 C 650.589844 333.839844 650.933594 333.445312 651.257812 333.03125 C 651.582031 332.617188 651.878906 332.1875 652.15625 331.742188 C 652.433594 331.296875 652.6875 330.835938 652.914062 330.363281 C 653.140625 329.890625 653.339844 329.40625 653.515625 328.910156 C 653.691406 328.417969 653.835938 327.914062 653.957031 327.402344 C 654.078125 326.890625 654.167969 326.375 654.234375 325.855469 C 656.78125 304.957031 676.574219 288.5625 698.160156 285.332031 C 719.746094 282.097656 740.453125 289.234375 749.972656 320.722656 C 750.242188 321.617188 750.59375 322.476562 751.027344 323.300781 C 751.464844 324.128906 751.972656 324.902344 752.558594 325.632812 C 753.144531 326.359375 753.792969 327.023438 754.507812 327.625 C 755.21875 328.226562 755.984375 328.757812 756.800781 329.210938 C 757.613281 329.667969 758.464844 330.039062 759.351562 330.328125 C 760.238281 330.621094 761.148438 330.824219 762.074219 330.9375 C 763 331.054688 763.929688 331.082031 764.859375 331.019531 C 765.789062 330.953125 766.707031 330.800781 767.609375 330.5625 C 793.546875 323.628906 810.167969 328.800781 821.632812 338.359375 C 833.09375 347.917969 839.5625 363.316406 839.839844 378.574219 C 840.117188 393.828125 834.371094 407.886719 823.703125 416.007812 C 813.035156 424.125 796.214844 428.226562 768.488281 418.925781 C 767.960938 418.75 767.425781 418.605469 766.878906 418.488281 C 766.335938 418.375 765.785156 418.289062 765.230469 418.238281 C 764.675781 418.1875 764.121094 418.164062 763.566406 418.175781 C 763.007812 418.1875 762.453125 418.234375 761.902344 418.308594 C 761.351562 418.382812 760.804688 418.492188 760.265625 418.628906 C 759.726562 418.769531 759.195312 418.9375 758.675781 419.136719 C 758.15625 419.335938 757.648438 419.5625 757.15625 419.820312 C 756.664062 420.078125 756.183594 420.363281 755.722656 420.675781 C 755.261719 420.988281 754.820312 421.328125 754.398438 421.691406 C 753.976562 422.054688 753.578125 422.441406 753.199219 422.847656 C 752.824219 423.257812 752.46875 423.6875 752.140625 424.136719 C 751.8125 424.585938 751.511719 425.054688 751.238281 425.539062 C 750.964844 426.023438 750.71875 426.523438 750.5 427.035156 C 750.285156 427.546875 750.097656 428.070312 749.941406 428.605469 C 749.785156 429.140625 749.65625 429.679688 749.5625 430.230469 C 749.46875 430.777344 749.40625 431.332031 749.375 431.886719 C 748.3125 451.363281 727.566406 467.683594 705.789062 470.140625 C 694.898438 471.371094 684.796875 469.144531 677.289062 463.507812 C 669.78125 457.867188 663.742188 448.648438 662.171875 431.375 C 662.046875 429.988281 661.730469 428.644531 661.21875 427.347656 C 660.707031 426.050781 660.023438 424.851562 659.164062 423.753906 C 658.308594 422.652344 657.3125 421.699219 656.179688 420.882812 C 655.046875 420.070312 653.824219 419.433594 652.507812 418.972656 C 651.191406 418.511719 649.839844 418.246094 648.445312 418.175781 C 647.054688 418.105469 645.679688 418.234375 644.324219 418.558594 C 642.96875 418.882812 641.6875 419.394531 640.476562 420.089844 C 639.269531 420.785156 638.183594 421.632812 637.21875 422.640625 C 623.574219 436.890625 602.832031 434.3125 590.339844 424.203125 C 584.097656 419.144531 580.628906 412.933594 580.386719 406.023438 C 580.148438 399.113281 582.925781 390.121094 594.367188 378.96875 C 595.070312 378.308594 595.695312 377.585938 596.253906 376.796875 C 596.808594 376.011719 597.28125 375.179688 597.671875 374.296875 C 598.0625 373.417969 598.363281 372.507812 598.574219 371.566406 C 598.78125 370.625 598.894531 369.671875 598.914062 368.710938 C 598.933594 367.746094 598.859375 366.792969 598.691406 365.84375 C 598.519531 364.894531 598.257812 363.972656 597.902344 363.078125 C 597.550781 362.183594 597.109375 361.328125 596.585938 360.519531 C 596.0625 359.710938 595.464844 358.964844 594.792969 358.273438 C 594.121094 357.585938 593.386719 356.96875 592.589844 356.425781 C 591.796875 355.878906 590.953125 355.421875 590.066406 355.042969 C 589.179688 354.667969 588.265625 354.382812 587.320312 354.191406 C 586.378906 353.996094 585.425781 353.898438 584.460938 353.890625 C 583.496094 353.886719 582.542969 353.980469 581.597656 354.164062 C 580.652344 354.351562 579.734375 354.628906 578.84375 354.996094 C 577.957031 355.363281 577.109375 355.816406 576.308594 356.351562 C 575.511719 356.890625 574.769531 357.5 574.09375 358.183594 C 558.429688 373.445312 550.78125 390.707031 551.347656 407.042969 C 551.917969 423.382812 560.484375 437.386719 572.078125 446.773438 C 589.964844 461.257812 616.59375 466.003906 639.289062 455.707031 C 643.972656 468.492188 650.414062 479.648438 659.847656 486.730469 C 674.332031 497.609375 692.214844 500.910156 709.050781 499.011719 C 737.769531 495.769531 765.199219 476.828125 774.273438 448.417969 C 801.257812 453.902344 825.117188 451.445312 841.3125 439.117188 C 860.628906 424.417969 869.265625 400.929688 868.847656 378.035156 C 868.433594 355.136719 859.105469 331.777344 840.234375 316.042969 C 823.933594 302.449219 799.777344 297.746094 772.460938 301.835938 C 756.640625 267.191406 723.765625 252.121094 693.847656 256.605469 C 665.742188 260.8125 640.199219 279.855469 630.15625 307.480469 C 574.144531 292.730469 528.710938 289.542969 494.71875 297.269531 C 457.710938 305.679688 432.527344 326.054688 420.730469 351.320312 C 397.136719 401.855469 425.410156 466.089844 482.4375 489.652344 C 534.792969 511.28125 551.484375 544.410156 553.191406 576.769531 C 554.898438 609.128906 538.367188 641.328125 522.648438 653.535156 C 522.058594 653.996094 521.503906 654.503906 520.988281 655.050781 C 520.476562 655.597656 520.007812 656.179688 519.582031 656.800781 C 519.160156 657.421875 518.785156 658.070312 518.460938 658.75 C 518.140625 659.429688 517.871094 660.128906 517.65625 660.847656 C 517.441406 661.566406 517.285156 662.300781 517.183594 663.042969 C 517.082031 663.789062 517.039062 664.535156 517.054688 665.289062 C 517.070312 666.039062 517.144531 666.785156 517.277344 667.523438 C 517.40625 668.265625 517.59375 668.988281 517.835938 669.699219 C 518.082031 670.410156 518.378906 671.097656 518.726562 671.761719 C 519.078125 672.425781 519.476562 673.0625 519.925781 673.664062 C 520.375 674.265625 520.867188 674.832031 521.40625 675.355469 C 521.941406 675.882812 522.515625 676.363281 523.125 676.800781 C 523.738281 677.238281 524.378906 677.625 525.050781 677.964844 C 525.71875 678.300781 526.414062 678.585938 527.128906 678.816406 C 527.84375 679.046875 528.574219 679.21875 529.3125 679.335938 C 530.054688 679.453125 530.804688 679.511719 531.554688 679.511719 L 681.089844 679.511719 L 624.65625 781.148438 L 322.296875 781.148438 L 265.863281 679.511719 L 415.398438 679.511719 C 416.644531 679.511719 417.867188 679.351562 419.074219 679.035156 C 420.277344 678.71875 421.421875 678.253906 422.507812 677.644531 C 423.59375 677.035156 424.582031 676.296875 425.476562 675.429688 C 426.375 674.566406 427.144531 673.601562 427.792969 672.535156 C 427.792969 672.535156 447.425781 641.066406 453.910156 605.46875 C 457.152344 587.667969 457.367188 567.886719 447.699219 550.394531 C 438.03125 532.90625 418.304688 520.285156 390.046875 516.679688 C 352.722656 511.917969 320.742188 526.046875 292.378906 539.535156 C 264.019531 553.023438 238.8125 565.625 214.679688 565.226562 C 196.703125 564.933594 184.949219 559.148438 176.621094 550.453125 C 168.292969 541.757812 163.3125 529.410156 162.300781 515.003906 C 161.839844 508.445312 165.316406 501.273438 166.582031 494.273438 C 195.441406 490.507812 220.828125 483.042969 234.699219 473.800781 C 247.601562 465.199219 256.296875 454.765625 260.308594 443.398438 C 264.316406 432.035156 263.191406 419.578125 256.875 410.109375 C 250.5625 400.636719 239.472656 394.808594 227.4375 394.140625 C 215.40625 393.472656 202.457031 397.480469 189.550781 406.082031 C 165.710938 421.972656 150.222656 444.550781 141.457031 468.527344 C 107.519531 468.785156 72.570312 459.203125 48.101562 426.582031 C 29.332031 401.558594 33.972656 385.363281 43.933594 375.199219 C 53.890625 365.035156 71.628906 361.308594 87.917969 372.164062 C 88.53125 372.574219 89.171875 372.933594 89.84375 373.246094 C 90.511719 373.554688 91.203125 373.8125 91.910156 374.019531 C 92.621094 374.226562 93.339844 374.375 94.074219 374.472656 C 94.804688 374.570312 95.539062 374.609375 96.277344 374.59375 C 97.015625 374.574219 97.75 374.503906 98.476562 374.375 C 99.203125 374.246094 99.917969 374.066406 100.617188 373.828125 C 101.316406 373.59375 101.992188 373.304688 102.648438 372.964844 C 103.304688 372.621094 103.929688 372.234375 104.527344 371.800781 C 105.125 371.363281 105.683594 370.886719 106.207031 370.363281 C 106.730469 369.84375 107.210938 369.285156 107.648438 368.691406 C 108.085938 368.097656 108.476562 367.472656 108.820312 366.820312 C 109.164062 366.164062 109.453125 365.488281 109.695312 364.789062 C 109.933594 364.089844 110.121094 363.378906 110.25 362.652344 C 110.382812 361.925781 110.457031 361.191406 110.476562 360.453125 C 110.496094 359.714844 110.457031 358.980469 110.367188 358.25 C 110.273438 357.515625 110.125 356.792969 109.921875 356.085938 C 103.566406 333.835938 106.894531 319.167969 114.289062 308.414062 C 121.683594 297.660156 134.394531 290.25 149.625 287.203125 C 180.082031 281.109375 216.398438 293.671875 227.695312 321.914062 C 228.023438 322.730469 228.421875 323.515625 228.890625 324.261719 C 229.363281 325.007812 229.898438 325.703125 230.496094 326.351562 C 231.09375 327.003906 231.742188 327.59375 232.449219 328.121094 C 233.152344 328.652344 233.902344 329.113281 234.691406 329.507812 C 235.480469 329.902344 236.296875 330.222656 237.144531 330.464844 C 237.992188 330.710938 238.855469 330.878906 239.734375 330.964844 C 240.609375 331.054688 241.488281 331.058594 242.367188 330.988281 C 243.246094 330.914062 244.113281 330.765625 244.964844 330.535156 C 278.199219 321.535156 297.460938 330.253906 310.8125 345.933594 C 324.167969 361.609375 330.304688 386.585938 327.914062 408.71875 L 327.96875 408.71875 C 327.953125 409.011719 327.84375 409.273438 327.828125 409.570312 C 327.753906 410.519531 327.773438 411.464844 327.886719 412.414062 C 328 413.359375 328.207031 414.285156 328.5 415.191406 C 328.796875 416.09375 329.179688 416.964844 329.644531 417.792969 C 330.109375 418.625 330.652344 419.402344 331.273438 420.125 C 331.894531 420.851562 332.578125 421.507812 333.324219 422.09375 C 334.074219 422.683594 334.875 423.195312 335.722656 423.628906 C 336.570312 424.058594 337.453125 424.402344 338.371094 424.664062 C 339.289062 424.921875 340.222656 425.085938 341.171875 425.160156 C 342.121094 425.234375 343.070312 425.214844 344.015625 425.105469 C 344.960938 424.992188 345.886719 424.789062 346.792969 424.496094 C 347.699219 424.199219 348.570312 423.820312 349.398438 423.355469 C 350.230469 422.890625 351.007812 422.347656 351.734375 421.730469 C 352.457031 421.109375 353.117188 420.425781 353.707031 419.679688 C 354.296875 418.933594 354.808594 418.132812 355.242188 417.285156 C 355.675781 416.4375 356.019531 415.554688 356.28125 414.636719 C 356.539062 413.71875 356.707031 412.785156 356.78125 411.835938 C 356.8125 411.558594 356.695312 411.265625 356.726562 410.988281 L 356.839844 410.988281 C 361.933594 306.535156 454.632812 229.828125 536.488281 211.65625 C 567.160156 229.769531 596.398438 236.097656 620.96875 231.136719 C 647.597656 225.765625 668.195312 209.289062 680.4375 189.507812 C 692.675781 169.726562 697.269531 146.222656 690.363281 125.132812 C 684.628906 107.632812 668.152344 95.039062 646.917969 88.921875 C 646.59375 48.542969 620.84375 14.894531 584.8125 4.15625 C 574.929688 1.210938 564.429688 0.0117188 553.675781 0.699219 Z M 225.851562 423.125 C 230.152344 423.363281 231.769531 424.796875 232.714844 426.214844 C 233.660156 427.632812 234.347656 429.695312 232.914062 433.757812 C 231.480469 437.820312 227.46875 443.722656 218.589844 449.640625 C 212.613281 453.621094 195.449219 459.195312 175.628906 463.476562 C 182.855469 450.847656 192.472656 439.03125 205.660156 430.242188 C 214.535156 424.324219 221.550781 422.886719 225.851562 423.125 Z M 225.851562 423.125 " fill-opacity="1" fill-rule="nonzero"/></svg>